<svg width="16" height="16" viewBox="0 0 16 16" fill="none" xmlns="http://www.w3.org/2000/svg">
<path d="M14.7212 4.60824C14.642 4.3104 14.486 4.03857 14.2688 3.81995C14.0516 3.60134 13.7808 3.44361 13.4835 3.36256C12.3889 3.06824 8.01392 3.06824 8.01392 3.06824C8.01392 3.06824 3.63892 3.06824 2.54437 3.36256C2.24704 3.44361 1.97622 3.60134 1.759 3.81995C1.54178 4.03857 1.38579 4.3104 1.30664 4.60824C1.01392 5.70756 1.01392 8.00005 1.01392 8.00005C1.01392 8.00005 1.01392 10.2926 1.30664 11.3919C1.38579 11.6897 1.54178 11.9615 1.759 12.1802C1.97622 12.3988 2.24704 12.5565 2.54437 12.6376C3.63892 12.9319 8.01392 12.9319 8.01392 12.9319C8.01392 12.9319 12.3889 12.9319 13.4835 12.6376C13.7808 12.5565 14.0516 12.3988 14.2688 12.1802C14.486 11.9615 14.642 11.6897 14.7212 11.3919C15.0139 10.2926 15.0139 8.00005 15.0139 8.00005C15.0139 8.00005 15.0139 5.70756 14.7212 4.60824Z" fill="#FF0302"/>
<path d="M6.58203 10.0817V5.91833L10.2411 8.00004L6.58203 10.0817Z" fill="#FEFEFE"/>
</svg>
